<svg width="323" height="99" viewBox="0 0 323 99" fill="none" xmlns="http://www.w3.org/2000/svg">
<path d="M4.31566 22.7176L19.6547 11.9772L63.7268 74.9187L50.7737 98.2518L4.31566 22.7176Z" fill="#8E8E8E"/>
<path d="M81.6156 12.6105L97.4496 22.3863L64.2497 73.2139L52.0128 55.5689L81.6156 12.6105Z" fill="#8E8E8E"/>
<path d="M74.857 3.76281L99.0895 20.1202L97.3521 22.6015L67.6673 3.83826L74.857 3.76281Z" fill="#8E8E8E"/>
<path d="M2.76456 20.4502L26.5847 3.77113L33.6567 3.85036L4.50199 22.9315L2.76456 20.4502Z" fill="#8E8E8E"/>
<g filter="url(#filter0_d_9_11)">
<path d="M165.89 21.2725V23.0668C164.74 23.0668 163.566 23.5269 162.37 24.4471C161.174 25.3672 160.162 26.9315 159.334 29.1399L142.425 73.5154H139.596L123.585 31.4174C123.493 31.1873 123.263 30.6352 122.895 29.7611C122.527 28.8409 122.066 27.8977 121.514 26.9315C120.962 25.9193 120.295 25.0222 119.513 24.24C118.777 23.4579 117.995 23.0668 117.167 23.0668V21.2725H135.524V23.0668C134.052 23.0668 133.178 23.6879 132.902 24.9301C132.671 26.1724 132.994 27.8747 133.868 30.0371L144.91 59.7128L156.987 28.1047C157.217 27.5526 157.355 26.9775 157.401 26.3794C157.493 25.7813 157.447 25.2522 157.263 24.7921C157.125 24.286 156.826 23.8719 156.366 23.5499C155.952 23.2278 155.377 23.0668 154.641 23.0668V21.2725H165.89ZM180.483 50.603V66.131C180.483 67.0051 180.69 67.6723 181.104 68.1324C181.519 68.5464 182.025 68.8225 182.623 68.9605C183.267 69.0525 183.934 69.0295 184.624 68.8915C185.314 68.7075 185.935 68.4544 186.488 68.1324C186.534 68.5464 186.557 69.0065 186.557 69.5126C186.603 69.9727 186.626 70.3408 186.626 70.6168C185.429 71.307 184.026 71.9511 182.416 72.5492C180.851 73.1013 179.287 73.4234 177.723 73.5154C176.159 73.5614 174.709 73.3313 173.375 72.8252C172.041 72.2731 171.052 71.2379 170.407 69.7197C169.119 71.2379 167.532 72.2961 165.646 72.8943C163.805 73.4924 161.988 73.6534 160.194 73.3774C158.445 73.0553 156.904 72.2961 155.57 71.0999C154.235 69.9037 153.476 68.2934 153.292 66.269C153.062 64.2446 153.361 62.4503 154.189 60.886C155.018 59.2757 156.214 57.9414 157.778 56.8832C159.388 55.779 161.275 54.9509 163.437 54.3987C165.6 53.8466 167.923 53.5706 170.407 53.5706V50.396C170.407 48.2796 170.269 46.5082 169.993 45.082C169.763 43.6557 169.142 42.9426 168.13 42.9426C167.394 42.9426 166.75 43.3566 166.198 44.1848C165.692 44.967 165.3 45.9791 165.024 47.2214C164.702 48.6937 164.196 49.7979 163.506 50.534C162.816 51.2702 162.08 51.7302 161.298 51.9143C160.516 52.0983 159.733 52.0523 158.951 51.7762C158.215 51.4542 157.594 50.9941 157.088 50.396C156.628 49.7519 156.375 48.9927 156.329 48.1186C156.329 47.1984 156.651 46.2322 157.295 45.22C158.123 43.9778 159.388 42.8506 161.091 41.8384C162.793 40.8262 165.093 40.3201 167.992 40.3201C171.903 40.3201 174.962 41.1942 177.171 42.9426C179.379 44.6449 180.483 47.1984 180.483 50.603ZM170.407 67.0972V56.1241C168.935 56.1241 167.624 56.4461 166.474 57.0903C165.323 57.6884 164.38 58.4705 163.644 59.4367C162.954 60.4029 162.471 61.4611 162.195 62.6113C161.919 63.7615 161.919 64.8657 162.195 65.9239C162.563 67.4422 163.529 68.3854 165.093 68.7535C166.658 69.1215 168.429 68.5694 170.407 67.0972ZM187.73 26.3794L199.669 21.2034H201.67V64.1296C201.67 64.8197 201.693 65.6019 201.739 66.476C201.831 67.3502 201.992 68.1784 202.222 68.9605C202.453 69.7427 202.798 70.4098 203.258 70.9619C203.718 71.468 204.362 71.721 205.19 71.721V73.5154H188.075V71.721C188.857 71.721 189.478 71.468 189.938 70.9619C190.398 70.4098 190.743 69.7427 190.973 68.9605C191.249 68.1784 191.41 67.3502 191.456 66.476C191.548 65.6019 191.594 64.8197 191.594 64.1296V35.2821C191.594 34.2699 191.456 33.4188 191.18 32.7286C190.95 31.9925 190.651 31.3714 190.283 30.8653C189.915 30.3132 189.501 29.8301 189.041 29.416C188.581 29.0019 188.144 28.5878 187.73 28.1738V26.3794ZM207.409 45.427L219.349 40.3201H221.35V64.1296C221.35 64.8197 221.373 65.6019 221.419 66.476C221.511 67.3502 221.672 68.1784 221.902 68.9605C222.132 69.7427 222.477 70.4098 222.937 70.9619C223.443 71.468 224.087 71.721 224.87 71.721V73.5154H207.754V71.721C208.536 71.721 209.158 71.468 209.618 70.9619C210.078 70.4098 210.423 69.7427 210.653 68.9605C210.929 68.1784 211.09 67.3502 211.136 66.476C211.228 65.6019 211.274 64.8197 211.274 64.1296V54.3297C211.274 53.3175 211.136 52.4434 210.86 51.7072C210.63 50.9711 210.331 50.35 209.963 49.8439C209.595 49.3378 209.181 48.8777 208.721 48.4636C208.26 48.0495 207.823 47.6355 207.409 47.2214V45.427ZM216.036 36.5244C214.61 36.5244 213.413 36.0413 212.447 35.0751C211.481 34.0629 210.998 32.8667 210.998 31.4864C210.998 30.1061 211.481 28.9329 212.447 27.9667C213.413 26.9545 214.61 26.4484 216.036 26.4484C217.416 26.4484 218.589 26.9545 219.556 27.9667C220.568 28.9329 221.074 30.1061 221.074 31.4864C221.074 32.8667 220.568 34.0629 219.556 35.0751C218.589 36.0413 217.416 36.5244 216.036 36.5244ZM242.105 40.3891C244.406 40.3891 246.568 40.8032 248.592 41.6313C250.617 42.4135 252.365 43.5407 253.837 45.013C255.356 46.4392 256.552 48.1876 257.426 50.258C258.3 52.2823 258.737 54.5138 258.737 56.9522C258.737 59.3907 258.3 61.6451 257.426 63.7155C256.552 65.7399 255.356 67.4882 253.837 68.9605C252.365 70.3868 250.617 71.514 248.592 72.3422C246.568 73.1243 244.406 73.5154 242.105 73.5154C239.805 73.5154 237.642 73.1243 235.618 72.3422C233.593 71.514 231.822 70.3868 230.304 68.9605C228.786 67.4882 227.589 65.7399 226.715 63.7155C225.841 61.6451 225.404 59.3907 225.404 56.9522C225.404 54.5138 225.841 52.2823 226.715 50.258C227.589 48.1876 228.786 46.4392 230.304 45.013C231.822 43.5407 233.593 42.4135 235.618 41.6313C237.642 40.8032 239.805 40.3891 242.105 40.3891ZM242.105 70.3408C243.163 70.3408 244.083 69.9957 244.866 69.3056C245.694 68.5694 246.384 67.6033 246.936 66.407C247.488 65.2108 247.902 63.8075 248.178 62.1972C248.5 60.5409 248.661 58.7926 248.661 56.9522C248.661 55.1119 248.5 53.3866 248.178 51.7762C247.902 50.1199 247.488 48.6937 246.936 47.4974C246.384 46.2552 245.694 45.289 244.866 44.5989C244.083 43.8627 243.163 43.4947 242.105 43.4947C241.047 43.4947 240.104 43.8627 239.276 44.5989C238.447 45.289 237.757 46.2552 237.205 47.4974C236.653 48.6937 236.216 50.1199 235.894 51.7762C235.618 53.3866 235.48 55.1119 235.48 56.9522C235.48 58.7926 235.618 60.5409 235.894 62.1972C236.216 63.8075 236.653 65.2108 237.205 66.407C237.757 67.6033 238.447 68.5694 239.276 69.3056C240.104 69.9957 241.047 70.3408 242.105 70.3408ZM259.708 70.6168C260.766 68.5004 261.848 66.476 262.952 64.5437C264.102 62.6113 265.229 60.7249 266.334 58.8846C267.484 56.9982 268.634 55.1349 269.784 53.2945C270.98 51.4082 272.131 49.4528 273.235 47.4284C273.925 46.2322 274.362 45.312 274.546 44.6679C274.776 44.0238 274.799 43.5637 274.615 43.2876C274.431 43.0116 274.063 42.8506 273.511 42.8045C273.005 42.7585 272.338 42.7355 271.51 42.7355C271.51 42.7355 271.371 42.7355 271.095 42.7355C270.865 42.7355 270.589 42.7355 270.267 42.7355C269.945 42.7355 269.646 42.7585 269.37 42.8045C269.14 42.8045 269.025 42.8045 269.025 42.8045C267.185 42.8506 265.735 43.4717 264.677 44.6679C263.619 45.8181 262.768 47.5895 262.124 49.9819C261.94 49.9359 261.664 49.8669 261.296 49.7749C260.974 49.6829 260.72 49.6368 260.536 49.6368L261.71 40.3201H285.864V43.2876C284.806 45.358 283.702 47.3594 282.552 49.2918C281.447 51.1781 280.32 53.0645 279.17 54.9509C278.02 56.7912 276.87 58.6546 275.719 60.5409C274.569 62.4273 273.442 64.3826 272.338 66.407C271.694 67.6493 271.302 68.5924 271.164 69.2366C271.026 69.8807 271.095 70.3408 271.371 70.6168C271.648 70.8929 272.085 71.0539 272.683 71.0999C273.281 71.0999 273.971 71.0999 274.753 71.0999H276.547C278.388 71.0079 280.044 70.3408 281.516 69.0985C283.035 67.8563 284.116 66.039 284.76 63.6465L286.278 64.0606L284.898 73.5154H259.708V70.6168ZM297.349 55.641H304.043C305.746 55.641 307.103 55.3649 308.115 54.8128C309.173 54.2607 309.909 53.5476 310.323 52.6734C310.784 51.7532 310.945 50.7641 310.807 49.7059C310.669 48.6477 310.3 47.5895 309.702 46.5313C309.288 45.7951 308.69 45.174 307.908 44.6679C307.126 44.1618 306.298 43.8167 305.424 43.6327C304.595 43.4487 303.744 43.4717 302.87 43.7017C301.996 43.9318 301.237 44.3918 300.593 45.082C299.58 46.1402 298.798 47.5895 298.246 49.4298C297.74 51.2702 297.441 53.3405 297.349 55.641ZM320.537 58.2635H297.349C297.487 60.1958 297.924 61.8752 298.66 63.3014C299.442 64.6817 300.386 65.8089 301.49 66.6831C302.64 67.5572 303.882 68.1554 305.216 68.4774C306.597 68.7995 307.977 68.8685 309.357 68.6845C310.784 68.5004 312.118 68.0633 313.36 67.3732C314.648 66.6371 315.775 65.6709 316.742 64.4747L318.536 65.7859C318.03 66.7061 317.271 67.6263 316.259 68.5464C315.246 69.4666 314.073 70.2948 312.739 71.0309C311.451 71.767 310.047 72.3652 308.529 72.8252C307.011 73.2853 305.47 73.5154 303.905 73.5154C301.605 73.5154 299.442 73.1243 297.418 72.3422C295.394 71.514 293.622 70.3868 292.104 68.9605C290.632 67.4882 289.458 65.7399 288.584 63.7155C287.71 61.6451 287.273 59.3907 287.273 56.9522C287.273 54.5138 287.71 52.2823 288.584 50.258C289.458 48.1876 290.632 46.4392 292.104 45.013C293.622 43.5407 295.394 42.4135 297.418 41.6313C299.442 40.8032 301.605 40.3891 303.905 40.3891C306.666 40.3891 309.081 40.8722 311.152 41.8384C313.268 42.7585 315.016 44.0468 316.397 45.7031C317.777 47.3134 318.812 49.1998 319.502 51.3622C320.192 53.5246 320.537 55.825 320.537 58.2635Z" fill="#8E8E8E"/>
</g>
<path d="M135.382 84.413H136.122L138.399 93.8285L141.287 84.413H141.896L144.768 93.8285L147.061 84.413H147.815L145.204 94.8005H144.42L141.591 85.5156L138.762 94.8005H137.979L135.382 84.413ZM160.014 84.413H165.788V85.0368H160.71V89.3166H165.57V89.8969H160.71V94.1622H165.788V94.8005H160.014V84.413ZM181.93 84.413C182.81 84.413 183.482 84.6548 183.946 85.1384C184.41 85.6123 184.643 86.2845 184.643 87.1549C184.643 87.7449 184.468 88.2527 184.12 88.6783C183.782 89.1038 183.39 89.3843 182.945 89.5197C183.554 89.6551 184.062 89.9356 184.468 90.3612C184.884 90.777 185.092 91.3138 185.092 91.9715C185.092 92.871 184.831 93.5674 184.309 94.0606C183.796 94.5539 183.085 94.8005 182.176 94.8005H178.259V84.413H181.93ZM181.77 89.3166C182.147 89.3166 182.5 89.2199 182.829 89.0264C183.158 88.833 183.424 88.5767 183.627 88.2575C183.83 87.9287 183.932 87.5708 183.932 87.1839C183.932 86.4972 183.743 85.9701 183.366 85.6026C182.998 85.2254 182.466 85.0368 181.77 85.0368H178.941V89.3166H181.77ZM182.089 94.1767C182.786 94.1767 183.342 93.9833 183.758 93.5964C184.173 93.1998 184.381 92.6534 184.381 91.957C184.381 91.5701 184.27 91.2219 184.048 90.9125C183.835 90.5933 183.55 90.3466 183.192 90.1726C182.844 89.9888 182.476 89.8969 182.089 89.8969H178.941V94.1767H182.089ZM215.547 94.9746C214.861 94.9746 214.237 94.8537 213.676 94.6119C213.124 94.3701 212.689 94.0316 212.37 93.5964C212.061 93.1515 211.906 92.6437 211.906 92.0731H212.66C212.66 92.518 212.781 92.9145 213.023 93.2627C213.274 93.6012 213.618 93.8672 214.053 94.0606C214.498 94.2541 214.996 94.3508 215.547 94.3508C216.118 94.3508 216.635 94.2589 217.1 94.0751C217.564 93.8817 217.927 93.6157 218.188 93.2772C218.458 92.929 218.594 92.5325 218.594 92.0876C218.594 91.6717 218.463 91.338 218.202 91.0865C217.951 90.8254 217.632 90.6223 217.245 90.4772C216.867 90.3321 216.355 90.1726 215.707 89.9985C214.943 89.7857 214.329 89.5874 213.864 89.4036C213.4 89.2102 213.004 88.9297 212.675 88.5622C212.356 88.185 212.196 87.6966 212.196 87.0969C212.196 86.5649 212.351 86.0814 212.66 85.6461C212.97 85.2109 213.395 84.8675 213.937 84.6161C214.478 84.3646 215.078 84.2389 215.736 84.2389C216.297 84.2389 216.838 84.3453 217.361 84.558C217.883 84.7611 218.318 85.0803 218.666 85.5156C219.015 85.9411 219.203 86.4731 219.232 87.1114H218.507C218.468 86.5988 218.309 86.1732 218.028 85.8347C217.748 85.4962 217.404 85.2496 216.998 85.0948C216.592 84.9401 216.171 84.8627 215.736 84.8627C215.214 84.8627 214.74 84.9643 214.314 85.1674C213.889 85.3608 213.555 85.6268 213.313 85.9653C213.071 86.3038 212.95 86.6762 212.95 87.0824C212.95 87.537 213.086 87.9093 213.357 88.1995C213.627 88.48 213.961 88.7024 214.358 88.8669C214.764 89.0216 215.31 89.1909 215.997 89.3746C216.742 89.5777 217.332 89.7712 217.767 89.9549C218.212 90.129 218.589 90.3853 218.899 90.7238C219.208 91.0624 219.363 91.5121 219.363 92.0731C219.363 92.6437 219.198 93.1515 218.87 93.5964C218.541 94.0316 218.086 94.3701 217.506 94.6119C216.925 94.8537 216.273 94.9746 215.547 94.9746ZM233.813 85.0368H230.636V84.413H237.672V85.0368H234.495V94.8005H233.813V85.0368ZM252.367 94.9746C251.149 94.9746 250.254 94.6796 249.683 94.0897C249.123 93.4997 248.842 92.5954 248.842 91.3767V84.413H249.509V91.3042C249.509 92.3197 249.737 93.0741 250.191 93.5674C250.646 94.0606 251.371 94.3073 252.367 94.3073C253.364 94.3073 254.084 94.0606 254.529 93.5674C254.984 93.0741 255.211 92.3197 255.211 91.3042V84.413H255.893V91.3767C255.893 92.5954 255.607 93.4997 255.037 94.0897C254.476 94.6796 253.586 94.9746 252.367 94.9746ZM272.852 84.413C273.742 84.413 274.482 84.6548 275.072 85.1384C275.662 85.6123 276.097 86.2458 276.377 87.0389C276.658 87.8223 276.798 88.6783 276.798 89.6067C276.798 90.5352 276.658 91.396 276.377 92.1891C276.097 92.9726 275.662 93.6061 275.072 94.0897C274.482 94.5636 273.742 94.8005 272.852 94.8005H269.457V84.413H272.852ZM272.823 94.1477C273.577 94.1477 274.196 93.9349 274.68 93.5093C275.173 93.0741 275.526 92.518 275.739 91.8409C275.961 91.1542 276.073 90.4095 276.073 89.6067C276.073 88.8137 275.961 88.0738 275.739 87.3871C275.526 86.7004 275.173 86.1442 274.68 85.7187C274.196 85.2834 273.577 85.0658 272.823 85.0658H270.153V94.1477H272.823ZM289.856 84.413H290.552V94.8005H289.856V84.413ZM308.525 94.9746C307.422 94.9746 306.503 94.728 305.768 94.2347C305.043 93.7318 304.506 93.0789 304.158 92.2762C303.819 91.4637 303.65 90.5739 303.65 89.6067C303.65 88.6396 303.819 87.7546 304.158 86.9518C304.506 86.1394 305.043 85.4865 305.768 84.9933C306.503 84.4903 307.422 84.2389 308.525 84.2389C309.627 84.2389 310.541 84.4903 311.267 84.9933C311.992 85.4865 312.524 86.1394 312.863 86.9518C313.211 87.7546 313.385 88.6396 313.385 89.6067C313.385 90.5739 313.211 91.4637 312.863 92.2762C312.524 93.0789 311.992 93.7318 311.267 94.2347C310.541 94.728 309.627 94.9746 308.525 94.9746ZM308.525 94.3073C309.492 94.3073 310.285 94.0848 310.904 93.6399C311.533 93.195 311.987 92.6195 312.268 91.9135C312.548 91.2074 312.689 90.4385 312.689 89.6067C312.689 88.775 312.548 88.0061 312.268 87.3C311.987 86.5843 311.533 86.004 310.904 85.5591C310.285 85.1142 309.492 84.8917 308.525 84.8917C307.558 84.8917 306.76 85.1142 306.131 85.5591C305.512 86.004 305.062 86.5843 304.782 87.3C304.501 88.0061 304.361 88.775 304.361 89.6067C304.361 90.4385 304.501 91.2074 304.782 91.9135C305.062 92.6195 305.512 93.195 306.131 93.6399C306.76 94.0848 307.558 94.3073 308.525 94.3073Z" fill="#8E8E8E"/>
<defs>
<filter id="filter0_d_9_11" x="115.912" y="21.2034" width="205.88" height="55.0977" filterUnits="userSpaceOnUse" color-interpolation-filters="sRGB">
<feFlood flood-opacity="0" result="BackgroundImageFix"/>
<feColorMatrix in="SourceAlpha" type="matrix" values="0 0 0 0 0 0 0 0 0 0 0 0 0 0 0 0 0 0 127 0" result="hardAlpha"/>
<feOffset dy="1.25478"/>
<feGaussianBlur stdDeviation="0.627392"/>
<feComposite in2="hardAlpha" operator="out"/>
<feColorMatrix type="matrix" values="0 0 0 0 0 0 0 0 0 0 0 0 0 0 0 0 0 0 0.25 0"/>
<feBlend mode="normal" in2="BackgroundImageFix" result="effect1_dropShadow_9_11"/>
<feBlend mode="normal" in="SourceGraphic" in2="effect1_dropShadow_9_11" result="shape"/>
</filter>
</defs>
</svg>
